# xmcd
#
# Track frame offsets:
#	150
#	18035
#	31414
#	53835
#	69046
#	87616
#	108985
#	132515
#	151623
#	168039
#	194341
#	212179
#	228064
#
# Disc length: 3259 seconds
#
# Revision: 0
# Processed by: cddbd v1.5.2PL0 Copyright (c) Steve Scherf et al.
# Submitted via: audiograbber 1.83.01
#
DISCID=9a0cb90d
DTITLE=Pink - Can't Take Me Home
DYEAR=2000
DGENRE=Contemporary R&B
TTITLE0=Split Personality
TTITLE1=Hell wit Ya
TTITLE2=Most Girls
TTITLE3=There You Go
TTITLE4=You Make Me Sick
TTITLE5=Let Me Let You Know
TTITLE6=Love Is Such a Crazy Thing
TTITLE7=Private Show
TTITLE8=Can't Take Me Home
TTITLE9=Stop Falling
TTITLE10=Do What U Do
TTITLE11=Hiccup
TTITLE12=Is It Love
EXTD=
EXTT0=
EXTT1=
EXTT2=
EXTT3=
EXTT4=
EXTT5=
EXTT6=
EXTT7=
EXTT8=
EXTT9=
EXTT10=
EXTT11=
EXTT12=
PLAYORDER=
